<svg width="800" height="800" viewBox="0 0 800 800" fill="none" xmlns="http://www.w3.org/2000/svg">
<circle cx="399.5" cy="399.5" r="399.5" fill="black"/>
<path d="M283.245 492.635H297.745H297.75L317.818 492.85H317.829C368.618 492.85 409 451.955 409.217 401.608V401.604V401.247L409.217 400.252C409.217 400.251 409.217 400.25 409.217 400.249C409.43 359.906 442.158 326.151 482.096 326.077C482.098 326.077 482.1 326.077 482.102 326.077L502.168 326.292H502.178H516.755C555.105 326.292 587.066 359.101 587.066 400.175C587.066 441.249 555.105 474.058 516.755 474.058H395.356H394.926L394.63 474.37L378.553 491.304L376.95 492.993H379.278H395.427H516.755C566.367 492.993 606 450.916 606 400.175C606 349.435 566.511 307.429 516.898 307.429H502.398H502.393L482.325 307.214V307.214H482.314C431.507 307.214 390.714 349.842 390.497 400.242V400.246V401.318L390.497 401.599C390.497 401.6 390.497 401.601 390.497 401.602C390.284 441.922 357.935 473.984 318.048 473.987C318.046 473.987 318.045 473.987 318.043 473.987L297.975 473.772H297.964H283.388C245.038 473.772 213.077 440.963 213.077 399.889C213.077 358.811 244.899 325.934 283.245 325.934H395.498H395.927L396.222 325.625L412.371 308.69L413.982 307H411.647H283.245C233.633 307 194 349.077 194 399.818C194 450.558 233.633 492.635 283.245 492.635Z" fill="white" stroke="white" stroke-width="2"/>
</svg>
